<?xml version="1.0" standalone="no"?>
<!DOCTYPE svg PUBLIC "-//W3C//DTD SVG 20010904//EN"
 "http://www.w3.org/TR/2001/REC-SVG-20010904/DTD/svg10.dtd">
<svg version="1.0" xmlns="http://www.w3.org/2000/svg"
 width="500.000000pt" height="500.000000pt" viewBox="0 0 500.000000 500.000000"
 preserveAspectRatio="xMidYMid meet">
<metadata>
Created by potrace 1.14, written by Peter Selinger 2001-2017
</metadata>
<g transform="translate(0.000000,500.000000) scale(0.100000,-0.100000)"
fill="#000000" stroke="none">
<path d="M3845 2888 c-43 -5 -81 -10 -83 -12 -2 -2 10 -69 27 -148 17 -79 31
-148 31 -153 0 -6 -13 15 -28 45 -62 126 -207 129 -263 6 -34 -76 -20 -215 30
-284 31 -44 100 -68 150 -53 51 15 88 54 106 110 l15 46 -3 -69 -2 -68 50 6
c28 3 64 6 80 6 59 1 58 -8 29 298 -23 240 -30 282 -43 281 -9 -1 -52 -6 -96
-11z m-30 -368 c18 -28 -57 -59 -110 -46 -27 7 -35 40 -12 49 23 10 116 7 122
-3z"/>
<path d="M4332 2770 c-34 -4 -65 -10 -69 -13 -3 -4 -1 -32 6 -63 21 -109 9
-164 -38 -164 -34 0 -41 21 -41 123 l0 100 -92 -7 c-51 -4 -94 -9 -97 -12 -9
-9 22 -291 36 -327 21 -50 56 -77 105 -77 78 0 122 44 138 139 7 43 8 41 9
-30 0 -42 3 -78 6 -80 4 -5 177 10 183 16 3 3 -25 308 -34 368 -6 41 -1 40
-112 27z"/>
<path d="M2403 2751 c-34 -3 -64 -8 -67 -12 -3 -3 8 -54 25 -113 16 -60 29
-115 27 -122 -2 -8 -50 40 -108 106 l-105 121 -40 -5 c-130 -16 -135 -17 -135
-33 0 -25 52 -548 55 -551 4 -4 229 19 234 24 2 2 -14 72 -36 154 -22 83 -36
149 -30 147 5 -1 55 -66 112 -142 l102 -140 79 2 c44 2 84 5 89 7 8 3 2 94
-16 282 -16 154 -28 280 -28 282 -1 3 -88 0 -158 -7z"/>
<path d="M3359 2680 c-28 -16 -53 -62 -65 -120 l-12 -55 -1 83 -1 83 -57 -6
c-99 -10 -123 -16 -123 -27 0 -20 30 -333 35 -364 l5 -30 68 7 c37 5 77 8 88
8 21 1 21 2 7 72 -16 79 -12 109 18 138 38 35 89 34 160 -6 11 -7 -3 212 -15
219 -16 11 -88 9 -107 -2z"/>
<path d="M1644 2651 c-35 -22 -49 -58 -34 -95 11 -30 54 -60 75 -52 23 9 18
-15 -10 -44 l-25 -26 25 -24 25 -23 26 24 c78 71 85 207 13 245 -37 19 -58 18
-95 -5z"/>
<path d="M2790 2633 c-19 -1 -63 -10 -97 -19 -71 -18 -70 -17 -57 -130 l7 -52
41 18 c72 32 157 29 193 -6 33 -33 23 -42 -16 -13 -23 17 -43 22 -80 21 -92
-2 -151 -52 -151 -128 0 -85 39 -124 125 -124 74 0 135 45 135 99 0 11 5 23
11 27 9 5 10 -9 4 -51 l-7 -58 44 6 c23 4 73 9 111 13 l67 6 0 32 c0 17 -3 55
-6 84 -6 45 -10 52 -29 52 -21 0 -23 6 -27 65 -3 55 -8 69 -33 95 -45 47 -141
73 -235 63z m105 -263 c0 -15 -58 -32 -82 -23 -21 8 -15 31 10 36 40 8 72 3
72 -13z"/>
<path d="M787 2595 c-119 -12 -219 -24 -220 -26 -2 -2 1 -58 7 -124 13 -137
-2 -124 124 -110 l62 7 0 -162 0 -162 103 7 c56 4 104 9 106 11 3 2 -10 71
-27 152 -18 81 -32 152 -32 158 0 7 32 13 81 17 44 3 83 7 85 10 3 3 0 59 -7
126 -13 121 -13 121 -38 120 -14 -1 -124 -12 -244 -24z"/>
<path d="M1215 2480 c-22 -4 -53 -13 -69 -19 l-29 -12 7 -76 c3 -42 8 -78 10
-80 2 -3 18 3 36 12 71 36 187 27 211 -17 13 -25 3 -37 -14 -15 -43 56 -180
42 -227 -23 -22 -31 -26 -92 -10 -134 21 -56 117 -84 180 -51 37 19 70 62 70
91 0 13 5 24 11 24 8 0 10 -16 5 -50 l-7 -50 38 1 c58 0 172 14 179 21 3 4 3
43 -1 87 -7 77 -8 81 -31 81 -22 0 -24 4 -24 53 0 107 -66 159 -210 163 -47 2
-103 -1 -125 -6z m180 -249 c8 -15 -29 -31 -69 -31 -40 0 -54 14 -29 29 23 13
90 14 98 2z"/>
<path d="M2573 2096 c-386 -39 -704 -74 -707 -77 -3 -3 0 -60 6 -127 l12 -123
40 6 c23 3 318 33 656 66 756 74 792 77 795 81 1 2 -21 231 -24 246 -2 6 -127
-5 -778 -72z m661 -43 c13 -80 0 -95 -41 -45 l-22 27 -1 -32 c0 -38 -15 -44
-24 -10 -8 30 -8 87 1 87 4 0 20 -12 35 -27 l28 -27 0 32 c0 44 16 40 24 -5z
m-119 17 c3 -5 -6 -12 -20 -16 -33 -8 -32 -22 3 -27 26 -4 26 -4 5 -12 -31
-10 -29 -25 2 -25 14 0 25 -4 25 -10 0 -5 -11 -11 -25 -11 -14 -1 -31 -2 -37
-3 -8 -1 -15 18 -18 51 -5 47 -3 53 15 56 36 8 44 7 50 -3z m-91 -31 c9 -47 7
-79 -5 -79 -6 0 -13 9 -16 20 -8 30 -43 26 -43 -5 0 -38 -17 -30 -24 13 -9 57
-7 72 9 72 8 0 15 -9 15 -20 0 -13 7 -20 20 -20 15 0 20 7 20 25 0 35 16 31
24 -6z m-124 -4 c17 -21 6 -29 -18 -14 -17 10 -23 10 -36 0 -37 -31 -4 -64 40
-41 32 18 41 7 15 -19 -25 -25 -54 -27 -75 -5 -19 18 -21 65 -4 82 17 17 63
15 78 -3z m-211 -67 c1 -39 -12 -51 -23 -22 -8 22 -8 79 1 88 10 10 21 -23 22
-66z m101 62 c0 -5 -7 -10 -16 -10 -14 0 -15 -7 -10 -45 6 -37 4 -45 -8 -45
-12 0 -16 10 -16 40 0 33 -3 40 -20 40 -11 0 -20 7 -20 15 0 11 12 15 45 15
25 0 45 -4 45 -10z m-161 -29 c-8 -23 -7 -35 6 -55 16 -23 16 -26 2 -26 -9 0
-21 9 -27 20 -15 28 -30 25 -30 -5 0 -31 -16 -33 -24 -2 -9 35 -7 87 4 87 6 0
10 -6 10 -14 0 -27 20 -27 32 -2 17 38 40 35 27 -3z m-162 -21 c-5 -22 -3 -28
7 -24 8 3 15 -4 18 -20 4 -21 1 -25 -29 -31 -46 -8 -63 7 -58 53 2 20 4 40 4
45 1 4 15 7 32 7 30 0 31 -2 26 -30z m-127 0 c7 -13 7 -26 1 -38 -7 -13 -6
-23 1 -30 19 -19 0 -27 -20 -9 -23 21 -32 21 -32 2 0 -20 -16 -19 -24 1 -8 21
-8 79 1 87 15 15 63 7 73 -13z m-114 -41 c28 -56 27 -67 -5 -47 -17 10 -25 10
-41 0 -29 -18 -33 -15 -27 16 9 44 26 82 37 82 5 0 21 -23 36 -51z m-106 26
c6 -8 9 -19 5 -25 -4 -6 -1 -17 5 -25 18 -22 -5 -45 -45 -45 -31 0 -33 2 -38
47 -3 27 -3 51 0 55 8 14 60 9 73 -7z"/>
<path d="M2430 1979 c0 -5 5 -7 10 -4 6 3 10 8 10 11 0 2 -4 4 -10 4 -5 0 -10
-5 -10 -11z"/>
<path d="M2425 1930 c3 -5 10 -10 16 -10 5 0 9 5 9 10 0 6 -7 10 -16 10 -8 0
-12 -4 -9 -10z"/>
<path d="M2286 1972 c-2 -4 -1 -14 4 -22 7 -11 12 -12 21 -3 6 6 8 16 5 22 -8
13 -23 14 -30 3z"/>
<path d="M2186 1935 c-3 -9 0 -15 9 -15 9 0 12 6 9 15 -4 8 -7 15 -9 15 -2 0
-5 -7 -9 -15z"/>
<path d="M2070 1944 c0 -9 5 -14 12 -12 18 6 21 28 4 28 -9 0 -16 -7 -16 -16z"/>
<path d="M2075 1900 c3 -5 13 -10 21 -10 8 0 14 5 14 10 0 6 -9 10 -21 10 -11
0 -17 -4 -14 -10z"/>
</g>
</svg>
